name 900006_2.mot
datacolumns 141
datarows 4
range 0.00833333 0.03333334
endheader

                time	           pelvis_tx	           pelvis_ty	           pelvis_tz	         pelvis_tilt	         pelvis_list	     pelvis_rotation	       hip_flexion_r	     hip_adduction_r	      hip_rotation_r	        knee_angle_r	       ankle_angle_r	    subtalar_angle_r	         mtp_angle_r	       hip_flexion_l	     hip_adduction_l	      hip_rotation_l	        knee_angle_l	       ankle_angle_l	    subtalar_angle_l	         mtp_angle_l	    lumbar_extension	      lumbar_bending	     lumbar_rotation	    ground_marker_px	    ground_marker_py	    ground_marker_pz	    ground_marker_px	    ground_marker_py	    ground_marker_pz	    ground_marker_px	    ground_marker_py	    ground_marker_pz	    ground_marker_px	    ground_marker_py	    ground_marker_pz	    ground_marker_px	    ground_marker_py	    ground_marker_pz	    ground_marker_px	    ground_marker_py	    ground_marker_pz	    ground_marker_px	    ground_marker_py	    ground_marker_pz	    ground_marker_px	    ground_marker_py	    ground_marker_pz	    ground_marker_px	    ground_marker_py	    ground_marker_pz	    ground_marker_px	    ground_marker_py	    ground_marker_pz	    ground_marker_px	    ground_marker_py	    ground_marker_pz	    ground_marker_px	    ground_marker_py	    ground_marker_pz	    ground_marker_px	    ground_marker_py	    ground_marker_pz	    ground_marker_px	    ground_marker_py	    ground_marker_pz	    ground_marker_px	    ground_marker_py	    ground_marker_pz	    ground_marker_px	    ground_marker_py	    ground_marker_pz	    ground_marker_px	    ground_marker_py	    ground_marker_pz	    ground_marker_px	    ground_marker_py	    ground_marker_pz	    ground_marker_px	    ground_marker_py	    ground_marker_pz	    ground_marker_px	    ground_marker_py	    ground_marker_pz	    ground_marker_px	    ground_marker_py	    ground_marker_pz	    ground_marker_px	    ground_marker_py	    ground_marker_pz	    ground_marker_px	    ground_marker_py	    ground_marker_pz	    ground_marker_px	    ground_marker_py	    ground_marker_pz	    ground_marker_px	    ground_marker_py	    ground_marker_pz	    ground_marker_px	    ground_marker_py	    ground_marker_pz	    ground_marker_px	    ground_marker_py	    ground_marker_pz	    ground_marker_px	    ground_marker_py	    ground_marker_pz	    ground_marker_px	    ground_marker_py	    ground_marker_pz	    ground_marker_px	    ground_marker_py	    ground_marker_pz	    ground_marker_px	    ground_marker_py	    ground_marker_pz	    ground_marker_px	    ground_marker_py	    ground_marker_pz	    ground_marker_px	    ground_marker_py	    ground_marker_pz	    ground_marker_px	    ground_marker_py	    ground_marker_pz	    ground_marker_px	    ground_marker_py	    ground_marker_pz	    ground_marker_px	    ground_marker_py	    ground_marker_pz	    ground_marker_px	    ground_marker_py	    ground_marker_pz	    ground_marker_px	    ground_marker_py	    ground_marker_pz	    ground_marker_px	    ground_marker_py	    ground_marker_pz	
          0.00833333	          0.83846462	          0.84517127	         -0.25682235	          4.26420879	          0.38044608	          5.94094706	         -7.11771345	         -3.61912322	         -5.04111004	         -4.21400833	          6.51334906	          0.00000000	          0.00000000	         -7.08738518	          0.24575455	          2.10418820	         -1.55216134	          4.13136435	          0.00000000	          0.00000000	         -4.87687826	         -0.44444898	          0.75537848	          0.76734281	          0.76248020	         -0.25125438	          0.77446383	          0.76104605	         -0.18159321	          0.76022172	          0.76391435	         -0.32091558	          0.75971943	          0.42439720	         -0.16560642	          0.74318403	          0.41849706	         -0.32479364	          0.71732599	          0.06582825	         -0.15727097	          0.71622986	          0.06729691	         -0.32960251	          0.83846462	          0.84517127	         -0.25682235	          0.84972733	          0.84290302	         -0.14664543	          0.82720196	          0.84743953	         -0.36699927	          0.66189986	          0.86981875	         -0.20661673	          0.65580589	          0.86900806	         -0.26028967	          0.76067603	          0.42703506	         -0.10917615	          0.73952526	          0.41930488	         -0.38066816	          0.73884350	          0.42163125	         -0.22384633	          0.75397068	          0.42143053	         -0.26760849	          0.71127927	          0.06740271	         -0.12029519	          0.70455617	          0.06866602	         -0.36415827	          0.71642596	          0.06172857	         -0.19070052	          0.71781963	          0.06685630	         -0.29608810	          0.66907406	          0.05260218	         -0.14091705	          0.66587538	          0.04968861	         -0.30825958	          0.81053478	          1.19497716	         -0.26252148	          0.82027078	          1.09337533	         -0.26748335	          0.70338303	          1.26327467	         -0.24170123	          0.81991732	          1.19456565	         -0.20599385	          0.80748272	          1.19594634	         -0.31357625	          0.80647987	          0.04842966	         -0.14489377	          0.80569404	          0.04605788	         -0.35039562	          0.89502996	          0.55371827	         -0.15402837	          0.86618578	          0.57050008	         -0.39658344	          0.84837866	          0.59826636	         -0.11950614	          0.85186779	          0.61238182	         -0.32685989	          0.83003283	          0.54259640	         -0.11844584	          0.83883530	          0.55513823	         -0.32244658	          0.84711921	          0.18070923	         -0.13603587	          0.69615793	          0.17391309	         -0.44992217	          0.76805949	          0.16585819	         -0.14962560	          0.70818770	          0.16213126	         -0.37247539	
          0.01666667	          0.83827984	          0.84522402	         -0.25681168	          4.30272675	          0.36672029	          5.87848282	         -7.10272598	         -3.60655570	         -4.93705702	         -4.21803236	          6.46330786	          0.00000000	          0.00000000	         -7.11721230	          0.21562067	          2.19298553	         -1.56712735	          4.14097929	          0.00000000	          0.00000000	         -4.97359610	         -0.37594688	          0.81621271	          0.76720715	          0.76248783	         -0.25128651	          0.77425611	          0.76108515	         -0.18161736	          0.76015818	          0.76389050	         -0.32095566	          0.75979799	          0.42440882	         -0.16559842	          0.74314094	          0.41814560	         -0.32488528	          0.71766609	          0.06573931	         -0.15756223	          0.71617848	          0.06726902	         -0.32945523	          0.83827984	          0.84522402	         -0.25681168	          0.84942377	          0.84300649	         -0.14666940	          0.82713592	          0.84744161	         -0.36695397	          0.66176206	          0.86961651	         -0.20660779	          0.65570116	          0.86906397	         -0.26026967	          0.76079470	          0.42705089	         -0.10916903	          0.73962802	          0.41895366	         -0.38076913	          0.73898494	          0.42149806	         -0.22368458	          0.75573546	          0.42104703	         -0.26639351	          0.71164197	          0.06727553	         -0.12058114	          0.70459145	          0.06860987	         -0.36404127	          0.71655887	          0.06182745	         -0.19098625	          0.71809620	          0.06674981	         -0.29602420	          0.66991985	          0.05226064	         -0.14294599	          0.66599828	          0.04964394	         -0.30830812	          0.81055725	          1.19503486	         -0.26252630	          0.82018089	          1.09342563	         -0.26755381	          0.70362717	          1.26335037	         -0.24163067	          0.81994569	          1.19457638	         -0.20596570	          0.80750012	          1.19604063	         -0.31361401	          0.80621320	          0.04818646	         -0.14474139	          0.80571735	          0.04589032	         -0.35039398	          0.89492077	          0.55371177	         -0.15403333	          0.86619502	          0.57059532	         -0.39660066	          0.84865046	          0.59833974	         -0.11954345	          0.85206777	          0.61235142	         -0.32684797	          0.83027107	          0.54236525	         -0.11845706	          0.83943033	          0.55515903	         -0.32219777	          0.84738499	          0.18073441	         -0.13582772	          0.69622624	          0.17380363	         -0.44981357	          0.76783335	          0.16581291	         -0.14949398	          0.70852345	          0.16214694	         -0.37231952	
          0.02500000	          0.83811152	          0.84515584	         -0.25677213	          4.27520609	          0.37968400	          5.84343672	         -7.01720190	         -3.62547493	         -4.92247391	         -4.22171497	          6.40648174	          0.00000000	          0.00000000	         -7.05970097	          0.23339263	          2.18269753	         -1.60340524	          4.14491844	          0.00000000	          0.00000000	         -5.04990101	         -0.30453968	          0.79314995	          0.76699531	          0.76245332	         -0.25130397	          0.77399921	          0.76103729	         -0.18163054	          0.75999141	          0.76386929	         -0.32097739	          0.75988305	          0.42444909	         -0.16561356	          0.74316007	          0.41800892	         -0.32489645	          0.71806854	          0.06555641	         -0.15771499	          0.71618694	          0.06729886	         -0.32937795	          0.83811152	          0.84515584	         -0.25677213	          0.84918380	          0.84291738	         -0.14662807	          0.82703930	          0.84739435	         -0.36691621	          0.66177547	          0.86957914	         -0.20660046	          0.65547317	          0.86911458	         -0.26037583	          0.76085466	          0.42709363	         -0.10918386	          0.73967254	          0.41881189	         -0.38078198	          0.73971272	          0.42110828	         -0.22360969	          0.75634176	          0.42082179	         -0.26600391	          0.71202672	          0.06707418	         -0.12073604	          0.70461482	          0.06863089	         -0.36396930	          0.71686852	          0.06183746	         -0.19117257	          0.71823227	          0.06681918	         -0.29597768	          0.67145002	          0.05166635	         -0.14674701	          0.66613173	          0.04952791	         -0.30832660	          0.81047291	          1.19493997	         -0.26255557	          0.81990540	          1.09331858	         -0.26770008	          0.70372504	          1.26339924	         -0.24155654	          0.81979632	          1.19439363	         -0.20604272	          0.80747628	          1.19601440	         -0.31358838	          0.80609423	          0.04805487	         -0.14472190	          0.80568612	          0.04586356	         -0.35042992	          0.89496922	          0.55365610	         -0.15401682	          0.86617786	          0.57105160	         -0.39682591	          0.84881359	          0.59819824	         -0.11952157	          0.85198706	          0.61237317	         -0.32681879	          0.83073461	          0.54237086	         -0.11845142	          0.83951038	          0.55511963	         -0.32210577	          0.84736735	          0.18066286	         -0.13589177	          0.69616896	          0.17377917	         -0.44986653	          0.76802117	          0.16586994	         -0.14953190	          0.70860875	          0.16224213	         -0.37228739	
          0.03333334	          0.83814394	          0.84522247	         -0.25675642	          4.28532887	          0.39494833	          5.85964155	         -7.04378176	         -3.62915802	         -4.94037199	         -4.22946405	          6.43070602	          0.00000000	          0.00000000	         -7.00591660	          0.28075406	          1.93607008	         -1.76601934	          4.23641825	          0.00000000	          0.00000000	         -5.05886221	         -0.34430608	          0.76508421	          0.76704383	          0.76250565	         -0.25129583	          0.77406502	          0.76106983	         -0.18162456	          0.76002258	          0.76394141	         -0.32096711	          0.75986105	          0.42450964	         -0.16566974	          0.74360847	          0.41815564	         -0.32473359	          0.71790314	          0.06561302	         -0.15769249	          0.71598595	          0.06699713	         -0.32945096	          0.83814394	          0.84522247	         -0.25675642	          0.84924537	          0.84295231	         -0.14659731	          0.82704246	          0.84749269	         -0.36691552	          0.66165417	          0.86963588	         -0.20666347	          0.65541947	          0.86914754	         -0.26041687	          0.76083028	          0.42714384	         -0.10923951	          0.73986495	          0.41894189	         -0.38060278	          0.73974091	          0.42118186	         -0.22375360	          0.75532854	          0.42109224	         -0.26628828	          0.71186250	          0.06714115	         -0.12071377	          0.70426404	          0.06838316	         -0.36398974	          0.71667475	          0.06197159	         -0.19117114	          0.71777046	          0.06667646	         -0.29598850	          0.67141533	          0.05168622	         -0.14675926	          0.66606200	          0.04950135	         -0.30824897	          0.81040555	          1.19502151	         -0.26255411	          0.81981087	          1.09325707	         -0.26768005	          0.70369411	          1.26345956	         -0.24145044	          0.81974691	          1.19436300	         -0.20612058	          0.80746341	          1.19593751	         -0.31357321	          0.80607980	          0.04813831	         -0.14482036	          0.80530918	          0.04558972	         -0.35046813	          0.89506173	          0.55378973	         -0.15402029	          0.86619335	          0.57102144	         -0.39689067	          0.84880024	          0.59800929	         -0.11950588	          0.85172981	          0.61243755	         -0.32681739	          0.83078939	          0.54252023	         -0.11847468	          0.83903313	          0.55507624	         -0.32213968	          0.84731483	          0.18065575	         -0.13608953	          0.69615275	          0.17383078	         -0.44989833	          0.76817000	          0.16590187	         -0.14954072	          0.70844328	          0.16227746	         -0.37230438	
